<svg xmlns="http://www.w3.org/2000/svg" xmlns:xlink="http://www.w3.org/1999/xlink" width="1000" zoomAndPan="magnify" viewBox="0 0 750 157.92" height="200" preserveAspectRatio="xMidYMid meet" version="1.0"><defs><g/><clipPath id="0a8e07296e"><rect x="0" width="589" y="0" height="97"/></clipPath><clipPath id="b14fded9d4"><path d="M 15.183594 72 L 60 72 L 60 78 L 15.183594 78 Z M 15.183594 72 " clip-rule="nonzero"/></clipPath><clipPath id="6f7d44cd09"><path d="M 90 72 L 135.121094 72 L 135.121094 78 L 90 78 Z M 90 72 " clip-rule="nonzero"/></clipPath><clipPath id="2c539f4f71"><path d="M 72 14.992188 L 78 14.992188 L 78 60 L 72 60 Z M 72 14.992188 " clip-rule="nonzero"/></clipPath><clipPath id="377c4594b6"><path d="M 72 90 L 78 90 L 78 134.933594 L 72 134.933594 Z M 72 90 " clip-rule="nonzero"/></clipPath><clipPath id="9fa628ee19"><path d="M 58.472656 58.28125 L 92.203125 58.28125 L 92.203125 92.015625 L 58.472656 92.015625 Z M 58.472656 58.28125 " clip-rule="nonzero"/></clipPath></defs><g transform="matrix(1, 0, 0, 1, 143, 26)"><g clip-path="url(#0a8e07296e)"><g fill="#293041" fill-opacity="1"><g transform="translate(1.114174, 75.333736)"><g><path d="M 44.546875 -18.671875 L 58.0625 -18.671875 C 56.820312 -14.898438 54.878906 -11.546875 52.234375 -8.609375 C 49.585938 -5.671875 46.457031 -3.363281 42.84375 -1.6875 C 39.238281 -0.0195312 35.332031 0.8125 31.125 0.8125 C 27.25 0.8125 23.597656 0.0820312 20.171875 -1.375 C 16.753906 -2.832031 13.738281 -4.867188 11.125 -7.484375 C 8.507812 -10.097656 6.472656 -13.113281 5.015625 -16.53125 C 3.554688 -19.957031 2.828125 -23.613281 2.828125 -27.5 C 2.828125 -31.375 3.554688 -35.019531 5.015625 -38.4375 C 6.472656 -41.863281 8.507812 -44.882812 11.125 -47.5 C 13.738281 -50.113281 16.753906 -52.148438 20.171875 -53.609375 C 23.597656 -55.066406 27.25 -55.796875 31.125 -55.796875 C 35.332031 -55.796875 39.226562 -54.957031 42.8125 -53.28125 C 46.394531 -51.613281 49.503906 -49.335938 52.140625 -46.453125 C 54.785156 -43.566406 56.726562 -40.238281 57.96875 -36.46875 L 44.46875 -36.46875 C 43.34375 -38.945312 41.535156 -40.898438 39.046875 -42.328125 C 36.566406 -43.753906 33.925781 -44.46875 31.125 -44.46875 C 28.164062 -44.46875 25.472656 -43.695312 23.046875 -42.15625 C 20.617188 -40.625 18.691406 -38.578125 17.265625 -36.015625 C 15.835938 -33.460938 15.125 -30.625 15.125 -27.5 C 15.125 -24.363281 15.835938 -21.515625 17.265625 -18.953125 C 18.691406 -16.398438 20.617188 -14.351562 23.046875 -12.8125 C 25.472656 -11.28125 28.164062 -10.515625 31.125 -10.515625 C 33.988281 -10.515625 36.660156 -11.269531 39.140625 -12.78125 C 41.617188 -14.289062 43.421875 -16.253906 44.546875 -18.671875 Z M 44.546875 -18.671875 "/></g></g></g><g fill="#293041" fill-opacity="1"><g transform="translate(73.634636, 75.333736)"><g><path d="M 34.765625 -21.03125 L 27.8125 -40.59375 L 20.859375 -21.03125 Z M 55.3125 0 L 42.296875 0 L 38.328125 -11.078125 L 17.390625 -11.078125 L 13.421875 0 L 0.40625 0 L 22.71875 -54.984375 L 32.984375 -54.984375 Z M 55.3125 0 "/></g></g></g><g fill="#293041" fill-opacity="1"><g transform="translate(141.789416, 75.333736)"><g><path d="M 26.203125 -8.578125 C 27.492188 -8.578125 28.894531 -8.773438 30.40625 -9.171875 C 31.914062 -9.578125 33.222656 -10.25 34.328125 -11.1875 C 35.429688 -12.132812 35.984375 -13.421875 35.984375 -15.046875 C 35.984375 -16.546875 35.398438 -17.753906 34.234375 -18.671875 C 33.078125 -19.585938 31.554688 -20.34375 29.671875 -20.9375 C 27.785156 -21.53125 25.722656 -22.082031 23.484375 -22.59375 C 21.253906 -23.113281 19.003906 -23.734375 16.734375 -24.453125 C 14.472656 -25.179688 12.398438 -26.140625 10.515625 -27.328125 C 8.628906 -28.515625 7.101562 -30.050781 5.9375 -31.9375 C 4.78125 -33.820312 4.203125 -36.222656 4.203125 -39.140625 C 4.203125 -41.992188 4.796875 -44.457031 5.984375 -46.53125 C 7.171875 -48.601562 8.75 -50.328125 10.71875 -51.703125 C 12.6875 -53.078125 14.894531 -54.101562 17.34375 -54.78125 C 19.800781 -55.457031 22.269531 -55.796875 24.75 -55.796875 C 28.519531 -55.796875 32.046875 -55.203125 35.328125 -54.015625 C 38.617188 -52.828125 41.300781 -50.953125 43.375 -48.390625 C 45.457031 -45.828125 46.550781 -42.445312 46.65625 -38.25 L 34.9375 -38.25 C 34.613281 -41.101562 33.613281 -43.082031 31.9375 -44.1875 C 30.269531 -45.289062 27.925781 -45.84375 24.90625 -45.84375 C 23.769531 -45.84375 22.566406 -45.65625 21.296875 -45.28125 C 20.035156 -44.90625 18.957031 -44.296875 18.0625 -43.453125 C 17.175781 -42.617188 16.734375 -41.503906 16.734375 -40.109375 C 16.734375 -38.703125 17.3125 -37.59375 18.46875 -36.78125 C 19.632812 -35.976562 21.160156 -35.304688 23.046875 -34.765625 C 24.929688 -34.234375 27.003906 -33.722656 29.265625 -33.234375 C 31.535156 -32.742188 33.785156 -32.148438 36.015625 -31.453125 C 38.253906 -30.753906 40.316406 -29.796875 42.203125 -28.578125 C 44.085938 -27.367188 45.609375 -25.789062 46.765625 -23.84375 C 47.929688 -21.90625 48.515625 -19.429688 48.515625 -16.421875 C 48.515625 -13.179688 47.867188 -10.425781 46.578125 -8.15625 C 45.285156 -5.894531 43.546875 -4.078125 41.359375 -2.703125 C 39.171875 -1.328125 36.71875 -0.316406 34 0.328125 C 31.28125 0.972656 28.519531 1.296875 25.71875 1.296875 C 21.675781 1.296875 17.890625 0.609375 14.359375 -0.765625 C 10.828125 -2.140625 7.96875 -4.253906 5.78125 -7.109375 C 3.59375 -9.972656 2.472656 -13.640625 2.421875 -18.109375 L 14.71875 -18.109375 C 14.875 -14.828125 16.082031 -12.414062 18.34375 -10.875 C 20.613281 -9.34375 23.234375 -8.578125 26.203125 -8.578125 Z M 26.203125 -8.578125 "/></g></g></g><g fill="#293041" fill-opacity="1"><g transform="translate(205.174302, 75.333736)"><g><path d="M 35.09375 -54.984375 L 48.03125 -54.984375 L 48.03125 0 L 35.09375 0 L 35.09375 -22.078125 L 16.984375 -22.078125 L 16.984375 0 L 4.859375 0 L 4.859375 -54.984375 L 16.984375 -54.984375 L 16.984375 -33.078125 L 35.09375 -33.078125 Z M 35.09375 -54.984375 "/></g></g></g><g fill="#293041" fill-opacity="1"><g transform="translate(270.499483, 75.333736)"><g><path d="M 28.21875 -43.984375 L 28.21875 0 L 16.09375 0 L 16.09375 -43.984375 L 0.40625 -43.984375 L 0.40625 -54.984375 L 43.90625 -54.984375 L 43.90625 -43.984375 Z M 28.21875 -43.984375 "/></g></g></g><g fill="#293041" fill-opacity="1"><g transform="translate(327.255024, 75.333736)"><g><path d="M 16.984375 -19.65625 L 16.984375 0 L 4.859375 0 L 4.859375 -54.984375 L 25.46875 -54.984375 C 28.4375 -54.984375 31.195312 -54.238281 33.75 -52.75 C 36.3125 -51.269531 38.375 -49.207031 39.9375 -46.5625 C 41.507812 -43.925781 42.296875 -40.859375 42.296875 -37.359375 C 42.296875 -34.285156 41.726562 -31.5625 40.59375 -29.1875 C 39.457031 -26.8125 37.945312 -24.867188 36.0625 -23.359375 C 34.175781 -21.859375 32.070312 -20.8125 29.75 -20.21875 L 45.53125 0 L 30.15625 0 L 17.0625 -19.65625 Z M 23.453125 -45.4375 L 16.984375 -45.4375 L 16.984375 -29.1875 L 23.453125 -29.1875 C 25.234375 -29.1875 26.890625 -29.882812 28.421875 -31.28125 C 29.960938 -32.6875 30.734375 -34.710938 30.734375 -37.359375 C 30.734375 -39.890625 29.960938 -41.867188 28.421875 -43.296875 C 26.890625 -44.722656 25.234375 -45.4375 23.453125 -45.4375 Z M 23.453125 -45.4375 "/></g></g></g><g fill="#293041" fill-opacity="1"><g transform="translate(384.253132, 75.333736)"><g><path d="M 34.765625 -21.03125 L 27.8125 -40.59375 L 20.859375 -21.03125 Z M 55.3125 0 L 42.296875 0 L 38.328125 -11.078125 L 17.390625 -11.078125 L 13.421875 0 L 0.40625 0 L 22.71875 -54.984375 L 32.984375 -54.984375 Z M 55.3125 0 "/></g></g></g><g fill="#293041" fill-opacity="1"><g transform="translate(452.407893, 75.333736)"><g><path d="M 44.546875 -18.671875 L 58.0625 -18.671875 C 56.820312 -14.898438 54.878906 -11.546875 52.234375 -8.609375 C 49.585938 -5.671875 46.457031 -3.363281 42.84375 -1.6875 C 39.238281 -0.0195312 35.332031 0.8125 31.125 0.8125 C 27.25 0.8125 23.597656 0.0820312 20.171875 -1.375 C 16.753906 -2.832031 13.738281 -4.867188 11.125 -7.484375 C 8.507812 -10.097656 6.472656 -13.113281 5.015625 -16.53125 C 3.554688 -19.957031 2.828125 -23.613281 2.828125 -27.5 C 2.828125 -31.375 3.554688 -35.019531 5.015625 -38.4375 C 6.472656 -41.863281 8.507812 -44.882812 11.125 -47.5 C 13.738281 -50.113281 16.753906 -52.148438 20.171875 -53.609375 C 23.597656 -55.066406 27.25 -55.796875 31.125 -55.796875 C 35.332031 -55.796875 39.226562 -54.957031 42.8125 -53.28125 C 46.394531 -51.613281 49.503906 -49.335938 52.140625 -46.453125 C 54.785156 -43.566406 56.726562 -40.238281 57.96875 -36.46875 L 44.46875 -36.46875 C 43.34375 -38.945312 41.535156 -40.898438 39.046875 -42.328125 C 36.566406 -43.753906 33.925781 -44.46875 31.125 -44.46875 C 28.164062 -44.46875 25.472656 -43.695312 23.046875 -42.15625 C 20.617188 -40.625 18.691406 -38.578125 17.265625 -36.015625 C 15.835938 -33.460938 15.125 -30.625 15.125 -27.5 C 15.125 -24.363281 15.835938 -21.515625 17.265625 -18.953125 C 18.691406 -16.398438 20.617188 -14.351562 23.046875 -12.8125 C 25.472656 -11.28125 28.164062 -10.515625 31.125 -10.515625 C 33.988281 -10.515625 36.660156 -11.269531 39.140625 -12.78125 C 41.617188 -14.289062 43.421875 -16.253906 44.546875 -18.671875 Z M 44.546875 -18.671875 "/></g></g></g><g fill="#293041" fill-opacity="1"><g transform="translate(524.928375, 75.333736)"><g><path d="M 16.984375 -24.578125 L 16.984375 0 L 4.859375 0 L 4.859375 -54.984375 L 16.984375 -54.984375 L 16.984375 -30.40625 L 34.359375 -54.984375 L 49.890625 -54.984375 L 28.78125 -27.5 L 50.703125 0 L 34.359375 0 Z M 16.984375 -24.578125 "/></g></g></g></g></g><path fill="#010101" d="M 75.152344 120.386719 C 50.144531 120.386719 29.726562 99.96875 29.726562 74.960938 C 29.726562 49.953125 50.144531 29.539062 75.152344 29.539062 C 100.160156 29.539062 120.574219 49.953125 120.574219 74.960938 C 120.574219 99.96875 100.160156 120.386719 75.152344 120.386719 Z M 75.152344 34.640625 C 52.949219 34.640625 34.832031 52.761719 34.832031 74.960938 C 34.832031 97.164062 52.949219 115.28125 75.152344 115.28125 C 97.351562 115.28125 115.472656 97.164062 115.472656 74.960938 C 115.472656 52.761719 97.351562 34.640625 75.152344 34.640625 Z M 75.152344 34.640625 " fill-opacity="1" fill-rule="nonzero"/><path fill="#010101" d="M 75.152344 103.542969 C 59.332031 103.542969 46.570312 90.785156 46.570312 74.960938 C 46.570312 59.140625 59.332031 46.378906 75.152344 46.378906 C 90.972656 46.378906 103.734375 59.140625 103.734375 74.960938 C 103.734375 90.785156 90.972656 103.542969 75.152344 103.542969 Z M 75.152344 51.484375 C 62.390625 51.484375 51.675781 61.949219 51.675781 74.960938 C 51.675781 87.976562 62.136719 98.441406 75.152344 98.441406 C 87.910156 98.441406 98.628906 87.976562 98.628906 74.960938 C 98.628906 61.949219 87.910156 51.484375 75.152344 51.484375 Z M 75.152344 51.484375 " fill-opacity="1" fill-rule="nonzero"/><g clip-path="url(#b14fded9d4)"><path fill="#010101" d="M 15.183594 72.410156 L 59.585938 72.410156 L 59.585938 77.515625 L 15.183594 77.515625 Z M 15.183594 72.410156 " fill-opacity="1" fill-rule="nonzero"/></g><g clip-path="url(#6f7d44cd09)"><path fill="#010101" d="M 90.71875 72.410156 L 135.121094 72.410156 L 135.121094 77.515625 L 90.71875 77.515625 Z M 90.71875 72.410156 " fill-opacity="1" fill-rule="nonzero"/></g><g clip-path="url(#2c539f4f71)"><path fill="#010101" d="M 72.601562 14.992188 L 77.703125 14.992188 L 77.703125 59.394531 L 72.601562 59.394531 Z M 72.601562 14.992188 " fill-opacity="1" fill-rule="nonzero"/></g><g clip-path="url(#377c4594b6)"><path fill="#010101" d="M 72.601562 90.527344 L 77.703125 90.527344 L 77.703125 134.933594 L 72.601562 134.933594 Z M 72.601562 90.527344 " fill-opacity="1" fill-rule="nonzero"/></g><g clip-path="url(#9fa628ee19)"><path fill="#000000" d="M 75.335938 58.28125 C 66.039062 58.28125 58.472656 65.847656 58.472656 75.148438 C 58.472656 84.449219 66.039062 92.015625 75.335938 92.015625 C 84.636719 92.015625 92.203125 84.449219 92.203125 75.148438 C 92.203125 65.847656 84.636719 58.28125 75.335938 58.28125 Z M 75.335938 89.738281 C 67.292969 89.738281 60.746094 83.191406 60.746094 75.148438 C 60.746094 67.101562 67.292969 60.554688 75.335938 60.554688 C 83.382812 60.554688 89.929688 67.101562 89.929688 75.148438 C 89.929688 83.191406 83.382812 89.738281 75.335938 89.738281 Z M 75.335938 89.738281 " fill-opacity="1" fill-rule="nonzero"/></g><path fill="#000000" d="M 75.742188 74.242188 C 73.082031 73.722656 71.832031 73.328125 71.832031 71.996094 C 71.832031 71.035156 72.25 70.367188 73.105469 69.953125 C 74.59375 69.230469 77.0625 69.511719 78.390625 70.554688 C 78.882812 70.945312 79.597656 70.859375 79.984375 70.363281 C 80.375 69.871094 80.289062 69.15625 79.792969 68.769531 C 78.886719 68.054688 77.703125 67.601562 76.472656 67.398438 L 76.472656 65.378906 C 76.472656 64.75 75.964844 64.242188 75.335938 64.242188 C 74.707031 64.242188 74.199219 64.75 74.199219 65.378906 L 74.199219 67.332031 C 73.457031 67.417969 72.742188 67.601562 72.109375 67.90625 C 70.464844 68.707031 69.558594 70.160156 69.558594 71.996094 C 69.558594 75.34375 72.878906 75.996094 75.300781 76.472656 C 77.914062 76.988281 78.84375 77.339844 78.84375 78.296875 C 78.84375 79.230469 78.449219 79.890625 77.640625 80.308594 C 76.210938 81.050781 73.824219 80.828125 72.417969 79.835938 C 71.90625 79.476562 71.195312 79.59375 70.835938 80.105469 C 70.472656 80.617188 70.589844 81.328125 71.105469 81.691406 C 71.976562 82.308594 73.066406 82.707031 74.199219 82.890625 L 74.199219 85.609375 C 74.199219 86.238281 74.707031 86.746094 75.335938 86.746094 C 75.964844 86.746094 76.472656 86.238281 76.472656 85.609375 L 76.472656 82.921875 C 77.265625 82.832031 78.035156 82.664062 78.683594 82.328125 C 80.253906 81.519531 81.117188 80.085938 81.117188 78.296875 C 81.117188 75.300781 78.136719 74.714844 75.742188 74.242188 Z M 75.742188 74.242188 " fill-opacity="1" fill-rule="nonzero"/></svg>